<?xml version="1.0" encoding="UTF-8"?>
<svg width="1370px" height="99px" viewBox="0 0 1370 99" version="1.1" xmlns="http://www.w3.org/2000/svg" xmlns:xlink="http://www.w3.org/1999/xlink">
    <!-- Generator: Sketch 42 (36781) - http://www.bohemiancoding.com/sketch -->
    <title>Group 2</title>
    <desc>Created with Sketch.</desc>
    <defs></defs>
    <g id="Page-1" stroke="none" stroke-width="1" fill="none" fill-rule="evenodd">
        <g id="Desktop-HD" transform="translate(-36.000000, -463.000000)" fill="#FFF">
            <g id="Group-2" transform="translate(36.000000, 463.000000)">
                <polygon id="Path" points="1368.3913 18.9856311 1368.3913 0 1294 0 1294 94.9281553 1369.88455 94.9281553 1369.88455 75.9425243 1318.1636 75.9425243 1318.1636 56.8212816 1363.50428 56.8212816 1363.50428 37.8356505 1318.1636 37.8356505 1318.1636 18.9856311"></polygon>
                <polygon id="Path" points="1202.17883 20.5280777 1202.17883 1 1121 1 1121 20.5280777 1149.37186 20.5280777 1149.37186 96.063767 1173.53546 96.063767 1173.53546 20.5280777"></polygon>
                <path d="M847.711675,2 C824.905584,2 809.837273,13.1201553 809.837273,30.6140583 C809.837273,64.2457476 860.064975,54.2104854 860.064975,71.0263301 C860.064975,76.4507961 855.313706,79.2986408 847.711675,79.2986408 C837.801885,79.2986408 823.140827,73.6029515 813.366788,65.0594175 L804,83.6382136 C815.267295,92.8598058 831.55736,98.8267184 847.440174,98.8267184 C868.617259,98.8267184 885.450326,88.7914563 885.450326,69.8058252 C885.450326,35.4960777 835.222625,44.8532816 835.222625,28.4442718 C835.222625,23.8334757 839.430892,21.5280777 845.675417,21.5280777 C853.413198,21.5280777 866.037999,25.5964272 876.083539,31.4277282 L885.178825,12.5777087 C875.404786,6.20396117 861.42248,2 847.711675,2 Z" id="Path"></path>
                <path d="M684.936592,2 C712.455746,2 733,22.6129709 733,50.1421359 C733,77.8069126 712.455746,98.8267184 684.936592,98.8267184 C657.544254,98.8267184 637,77.9425243 637,50.1421359 C637,22.4773592 657.544254,2 684.936592,2 Z M685.190225,22.2061359 C671.494055,22.2061359 660.080581,34.2755728 660.080581,50.2777476 C660.080581,66.2799223 671.620872,78.6205825 685.190225,78.6205825 C698.886394,78.6205825 709.792602,66.2799223 709.792602,50.2777476 C709.792602,34.2755728 698.886394,22.2061359 685.190225,22.2061359 Z" id="Combined-Shape"></path>
                <path d="M204.936592,2 C232.455746,2 253,22.6129709 253,50.1421359 C253,77.8069126 232.455746,98.8267184 204.936592,98.8267184 C177.544254,98.8267184 157,77.9425243 157,50.1421359 C157,22.4773592 177.544254,2 204.936592,2 Z M205.190225,22.2061359 C191.494055,22.2061359 180.080581,34.2755728 180.080581,50.2777476 C180.080581,66.2799223 191.620872,78.6205825 205.190225,78.6205825 C218.886394,78.6205825 229.792602,66.2799223 229.792602,50.2777476 C229.792602,34.2755728 218.886394,22.2061359 205.190225,22.2061359 Z" id="Combined-Shape"></path>
                <path d="M485,3 L526.403916,3 C550.703263,3 564.685569,14.9338252 564.685569,36.0892427 C564.685569,58.3295534 550.703263,71.2126602 526.403916,71.2126602 L509.163597,71.2126602 L509.163597,97.9281553 L485,97.9281553 L485,3 Z M509.163597,21.9856311 L509.163597,52.2270291 L525.182161,52.2270291 C535.770703,52.2270291 541.879478,46.9381748 541.879478,36.9029126 C541.879478,27.0032621 535.770703,21.9856311 525.182161,21.9856311 L509.163597,21.9856311 Z" id="Combined-Shape"></path>
                <polygon id="Path" points="412.332125 97.063767 412.332125 2 386.431013 2 364.666062 54.5057405 344.232742 2 317 2 317 97.063767 341.173946 97.063767 341.173946 44.8402785 357.537848 87.5709515 371.918246 87.5709515 388.282148 44.8402785 388.406117 97.063767"></polygon>
                <path d="M50.7707034,2 C21.8558376,2 0,22.6129709 0,50.0065243 C0,77.8069126 21.3128354,98.8267184 49.9562001,98.8267184 C63.9385062,98.8267184 79.0068165,91.9105243 89.1881073,81.4684272 L75.0700508,66.5511456 C68.4182741,73.3317282 59.1872371,77.671301 51.177955,77.671301 C36.1096447,77.671301 24.706599,65.6018641 24.706599,49.735301 C24.706599,34.1399612 36.1096447,22.2061359 51.177955,22.2061359 C59.5944888,22.2061359 68.8255257,26.9525437 75.0700508,34.5467961 L89.0523568,18.0021748 C79.5498187,8.23813592 64.88876,2 50.7707034,2 Z" id="Path"></path>
                <g id="Group" transform="translate(972.000000, 3.000000)">
                    <polygon id="Path" points="45.1635968 94.9281553 45.1635968 0 21 0 21 94.9281553"></polygon>
                    <rect id="Rectangle-3" x="0.664658075" y="0" width="65.6706839" height="20"></rect>
                    <rect id="Rectangle-3-Copy" x="0.664658075" y="75" width="65.6706839" height="20"></rect>
                </g>
            </g>
        </g>
    </g>
</svg>